<svg xmlns="http://www.w3.org/2000/svg" width="14" height="17" viewBox="0 0 14 17" fill="none">
  <g clip-path="url(#clip0_1894_2038)">
    <path fill-rule="evenodd" clip-rule="evenodd"
          d="M13.2335 6.40162C13.3414 6.29998 13.4023 6.16231 13.4029 6.0186C13.4035 5.8749 13.3436 5.73681 13.2365 5.63442C11.9988 4.45687 10.6314 3.1854 9.37875 2.00879C7.2408 -0.0035795 3.74242 -0.0035795 1.60347 2.00879C-0.534489 4.02021 -0.534489 7.31155 1.60347 9.32392L6.96332 14.3656C7.73751 15.0918 8.78612 15.4995 9.87931 15.4995C10.9725 15.4995 12.0211 15.0918 12.7953 14.3656C13.5668 13.6373 14 12.651 14 11.6227C14 10.5944 13.5668 9.60808 12.7953 8.87975L8.0832 4.44748C7.82822 4.20685 7.52526 4.01593 7.1917 3.88566C6.85814 3.75539 6.50054 3.68834 6.13938 3.68834C5.77823 3.68834 5.42062 3.75539 5.08706 3.88566C4.7535 4.01593 4.45055 4.20685 4.19556 4.44748C3.93995 4.68735 3.73714 4.97232 3.59877 5.28605C3.4604 5.59978 3.38917 5.93612 3.38917 6.27579C3.38917 6.61546 3.4604 6.95179 3.59877 7.26552C3.73714 7.57926 3.93995 7.86422 4.19556 8.1041L7.27473 11.001C7.3285 11.0517 7.39237 11.0919 7.46268 11.1194C7.53298 11.1468 7.60835 11.1609 7.68446 11.1609C7.76057 11.1609 7.83594 11.1468 7.90624 11.1194C7.97655 11.0919 8.04041 11.0517 8.09418 11.001L8.57028 10.5531C8.6243 10.5025 8.66717 10.4424 8.69641 10.3761C8.72566 10.3099 8.74072 10.2389 8.74072 10.1672C8.74072 10.0955 8.72566 10.0244 8.69641 9.95821C8.66717 9.89198 8.6243 9.83183 8.57028 9.78123L5.49111 6.88523C5.40483 6.80574 5.33628 6.71086 5.28948 6.60613C5.24268 6.50139 5.21857 6.38893 5.21857 6.27532C5.21857 6.16171 5.24268 6.04924 5.28948 5.94451C5.33628 5.83978 5.40483 5.74489 5.49111 5.66541C5.57559 5.58424 5.67645 5.51974 5.78777 5.47571C5.89909 5.43168 6.01863 5.40901 6.13938 5.40901C6.26014 5.40901 6.37968 5.43168 6.491 5.47571C6.60232 5.51974 6.70317 5.58424 6.78766 5.66541L11.4987 10.0986C11.9068 10.5068 12.1299 11.0484 12.1209 11.6086C12.1118 12.1689 11.8713 12.7039 11.4502 13.1001C11.0291 13.4964 10.4606 13.7229 9.86507 13.7316C9.26955 13.7403 8.69382 13.5305 8.25987 13.1468L2.90001 8.1041C2.21535 7.45611 1.83106 6.57956 1.83106 5.66588C1.83106 4.7522 2.21535 3.87565 2.90001 3.22766C3.58876 2.58352 4.52046 2.22197 5.49161 2.22197C6.46276 2.22197 7.39445 2.58352 8.0832 3.22766C9.34082 4.41085 10.6364 5.65039 11.9379 6.85799C12.0468 6.95842 12.1935 7.01436 12.346 7.01366C12.4985 7.01296 12.6445 6.95567 12.7524 6.85424L13.2335 6.40162Z"
          fill="#216BB6"/>
  </g>
  <defs>
    <clipPath id="clip0_1894_2038">
      <rect width="14" height="16" fill="white" transform="translate(0 0.5)"/>
    </clipPath>
  </defs>
</svg>
