<svg width="22" height="24" xmlns="http://www.w3.org/2000/svg"><defs><filter filterUnits="userSpaceOnUse" color-interpolation-filters="sRGB" id="a"><feFlood flood-opacity="0" result="BackgroundImageFix"/><feColorMatrix in="SourceAlpha" values="0 0 0 0 0 0 0 0 0 0 0 0 0 0 0 0 0 0 127 0"/><feOffset dy="2"/><feGaussianBlur stdDeviation="2"/><feColorMatrix values="0 0 0 0 0 0 0 0 0 0 0 0 0 0 0 0 0 0 0.11372549 0"/><feBlend in2="BackgroundImageFix" result="effect0_dropShadow"/><feBlend in="SourceGraphic" in2="effect0_dropShadow" result="shape"/></filter></defs><g clip-path="url(#clip_1)" fill-rule="evenodd"><path d="M10.999 5h2.002q.147 0 .294.007t.294.022q.147.014.292.036.146.022.29.05.145.029.288.065.142.036.283.078.141.043.28.093.139.05.275.106.136.056.269.119t.263.132q.13.07.256.145.126.076.249.158.122.082.24.17.119.087.233.18.114.094.223.193t.213.203q.104.104.203.213.099.11.192.223.094.114.181.232.088.119.17.241.082.123.157.249.076.126.146.256.07.13.132.263.063.133.12.27.056.135.105.274.05.139.093.28.042.14.078.283.036.143.065.288.028.144.05.29.022.145.036.292.014.147.022.294.007.147.007.294v1.002q0 .147-.007.294-.008.147-.022.294-.014.147-.036.292-.022.146-.05.29-.029.145-.065.288-.036.142-.078.283-.043.141-.093.28-.05.139-.106.275-.056.136-.119.269t-.132.263q-.07.13-.146.256-.075.126-.157.249-.082.122-.17.24-.087.119-.18.233-.094.114-.193.223t-.203.213q-.104.104-.213.203-.11.099-.223.192-.114.094-.232.181-.119.088-.241.17-.123.082-.249.158-.126.075-.256.145-.13.07-.263.132-.133.063-.27.12-.135.056-.274.105-.139.05-.28.093-.14.042-.283.078-.143.036-.288.065-.144.028-.29.05-.145.022-.292.036-.147.014-.294.022-.147.007-.294.007h-2.002q-.147 0-.294-.007-.147-.008-.294-.022-.147-.014-.292-.036-.146-.022-.29-.05-.145-.029-.288-.065-.142-.036-.283-.078-.141-.043-.28-.093-.139-.05-.275-.106-.136-.056-.269-.119t-.263-.132q-.13-.07-.256-.146-.126-.075-.249-.157-.122-.082-.24-.17-.119-.087-.233-.18-.114-.094-.223-.193t-.213-.203q-.104-.104-.203-.213-.099-.11-.192-.223-.094-.114-.181-.232-.088-.119-.17-.241-.082-.123-.158-.249-.075-.126-.145-.256-.07-.13-.132-.263-.063-.133-.12-.27-.056-.135-.105-.274-.05-.139-.093-.28-.042-.14-.078-.283-.036-.143-.065-.288-.028-.144-.05-.29-.022-.145-.036-.292-.015-.147-.022-.294Q5 12.148 5 12.001v-1.002q0-.147.007-.294t.022-.294q.014-.147.036-.292.022-.146.05-.29.029-.145.065-.288.036-.142.078-.283.043-.141.093-.28.05-.139.106-.275.056-.136.119-.269t.132-.263q.07-.13.145-.256.076-.126.158-.249.082-.122.17-.24.087-.119.18-.233.094-.114.193-.223t.203-.213q.104-.104.213-.203.11-.099.223-.192.114-.094.232-.181.119-.088.241-.17.123-.082.249-.158.126-.075.256-.145.13-.07.263-.132.133-.063.27-.12.135-.056.274-.105.139-.05.28-.093.14-.042.283-.078.143-.036.288-.065.144-.028.29-.05.145-.022.292-.036.147-.015.294-.022.147-.007.294-.007z" fill="#FFF"/><path d="M9.999 0h.002q.245 0 .49.012.246.012.49.036.244.024.487.06t.484.084q.24.048.479.108.238.06.473.13.234.072.466.155.23.082.457.176.227.094.45.199.221.105.438.22.216.116.427.243.21.126.414.262.204.137.401.283.198.146.387.302.19.155.372.32t.355.339q.174.173.339.355.165.182.32.372.156.19.302.387t.283.4q.136.205.262.415.127.211.242.428.116.216.221.438t.199.449q.094.226.177.457.082.232.153.466.072.235.131.473.06.239.108.48.048.24.084.483.036.243.06.487t.036.49q.012.245.012.49v.002q0 .245-.012.49-.012.246-.036.49-.024.244-.06.487t-.084.484q-.048.24-.108.479-.06.238-.13.473-.072.234-.154.466-.083.23-.177.457-.094.227-.199.45-.105.221-.22.438-.116.216-.243.427-.126.21-.262.414-.137.204-.283.401-.146.198-.302.387-.155.19-.32.372t-.339.355q-.173.174-.355.339-.182.165-.372.32-.19.156-.387.302t-.4.283q-.205.136-.415.262-.211.127-.428.242-.216.116-.438.221t-.449.199q-.226.094-.457.177-.232.082-.466.153-.235.072-.473.131-.238.06-.48.108-.24.048-.483.084-.243.036-.487.06t-.49.036q-.245.012-.49.012h-.002q-.245 0-.49-.012-.246-.012-.49-.036-.244-.024-.487-.06t-.484-.084q-.24-.048-.479-.108-.238-.06-.473-.13-.234-.072-.466-.154-.23-.083-.457-.177-.227-.094-.45-.199-.221-.105-.438-.22-.216-.116-.427-.243-.21-.126-.414-.262-.204-.137-.401-.283-.198-.146-.387-.302-.19-.155-.372-.32t-.355-.339q-.174-.173-.339-.355-.165-.182-.32-.372-.156-.19-.302-.387t-.283-.4q-.136-.205-.262-.415-.127-.211-.242-.428-.116-.216-.221-.438t-.199-.449q-.094-.226-.176-.457-.083-.232-.154-.466-.072-.235-.131-.473-.06-.238-.108-.48-.048-.24-.084-.483-.036-.243-.06-.487t-.036-.49Q0 10.247 0 10.002v-.002q0-.245.012-.49.012-.246.036-.49.024-.244.06-.487t.084-.484Q.24 7.808.3 7.57q.06-.238.13-.473.072-.234.155-.466.082-.23.176-.457.094-.227.199-.45.105-.221.22-.438.116-.216.243-.427.126-.21.262-.414.137-.204.283-.401.146-.198.302-.387.155-.19.32-.372t.339-.355q.173-.174.355-.339.182-.165.372-.32.19-.156.387-.302t.4-.283q.205-.136.415-.262.211-.127.428-.242.216-.116.438-.221t.449-.199q.226-.094.457-.176.232-.083.466-.154Q7.331.359 7.57.3q.239-.06.48-.108.24-.048.483-.084.243-.036.487-.06t.49-.036Q9.753 0 9.998 0z" transform="translate(1 1)" fill="#00B0E8" filter="url(#a)"/><path d="M10.005 12.136l5.282-5.214 1.598 1.607-6.855 6.796-.025-.025-.025.025-4.193-4.059L7.385 9.66l2.62 2.477z" fill="#FFF"/></g></svg>