<svg width="11" height="21" viewBox="0 0 11 12" fill="none" xmlns="http://www.w3.org/2000/svg">
<path fill-rule="evenodd" clip-rule="evenodd" d="M0.733677 8.65659L0 11.5L2.68831 10.6585C2.52112 10.1998 2.27473 9.78186 1.96234 9.42657C1.61255 9.06908 1.19236 8.80729 0.733677 8.65659ZM6.68119 2.0975L1.42335 7.83162C1.86004 8.06041 2.26483 8.353 2.62672 8.70279C2.92371 9.08008 3.1723 9.50026 3.36369 9.95125L8.61823 4.22043C8.41473 3.72875 8.13754 3.27776 7.79765 2.88617C7.47206 2.54958 7.09367 2.28339 6.67789 2.0997L6.68009 2.0964L6.68119 2.0975ZM9.68739 0.934837C9.4212 0.648846 9.06041 0.491551 8.68642 0.50035C8.31464 0.50915 7.96045 0.681846 7.70525 0.978837L7.38956 1.32313C7.80975 1.51782 8.19474 1.79391 8.52583 2.1371C8.86022 2.51988 9.13081 2.96207 9.331 3.44276L9.64779 3.09737C9.92058 2.82018 10.0768 2.43299 10.0856 2.026C10.0922 1.61902 9.94808 1.22523 9.68519 0.937036H9.68849L9.68739 0.934837Z" fill="#5B6573"/>
</svg>
