<svg width="11" height="11" viewBox="0 0 11 11" fill="none" xmlns="http://www.w3.org/2000/svg">
<path fill-rule="evenodd" clip-rule="evenodd" d="M10.238 5.754V4.48399H8.885C8.8 3.89199 8.545 3.384 8.208 2.877L8.968 2.11501L8.123 1.269L7.277 2.02901C6.854 1.69101 6.347 1.437 5.754 1.353V0H4.484V1.354C3.892 1.438 3.384 1.69201 2.877 2.03101L2.115 1.271L1.269 2.116L2.029 2.87801C1.691 3.38601 1.437 3.89299 1.353 4.48599H0V5.756H1.354C1.438 6.346 1.692 6.856 2.031 7.278L1.271 8.12399L2.201 9.054L2.963 8.29401C3.386 8.63201 3.978 8.886 4.57 8.97V10.323H5.838V8.96899C6.431 8.88399 6.938 8.629 7.446 8.291L8.208 9.05299L9.138 8.123L8.208 7.276C8.546 6.853 8.715 6.261 8.885 5.668H10.238V5.752V5.754ZM2.792 5.162C2.792 3.892 3.808 2.79201 5.162 2.79201C6.432 2.79201 7.532 3.808 7.532 5.162C7.532 6.432 6.515 7.532 5.162 7.532C3.808 7.446 2.792 6.432 2.792 5.162Z" fill="#868D95"/>
</svg>
