<svg width="12" height="12" viewBox="0 0 12 12" fill="none" xmlns="http://www.w3.org/2000/svg">
<path d="M6 0C4.94681 0 3.91214 0.277265 2.99997 0.803863C2.08786 1.33046 1.33048 2.08786 0.803862 2.99997C0.277265 3.91217 0 4.94681 0 6C0 7.05319 0.277265 8.08786 0.803862 9.00004C1.33046 9.91215 2.08786 10.6695 2.99997 11.1961C3.91217 11.7227 4.94681 12 6 12C7.05319 12 8.08786 11.7227 9.00004 11.1961C9.91215 10.6695 10.6695 9.91215 11.1961 9.00004C11.7227 8.08784 12 7.05319 12 6C12 4.94681 11.7227 3.91214 11.1961 2.99997C10.6695 2.08786 9.91215 1.33048 9.00004 0.803863C8.08784 0.277265 7.05319 0 6 0ZM6 2.10841C6.20778 2.10841 6.40713 2.19091 6.55401 2.33789C6.701 2.48478 6.78349 2.68413 6.78349 2.8919C6.78349 3.09967 6.70099 3.29903 6.55401 3.44591C6.40712 3.59289 6.20777 3.67538 6 3.67538C5.79223 3.67538 5.59287 3.59289 5.44599 3.44591C5.29901 3.29902 5.21652 3.09967 5.21652 2.8919C5.21652 2.68412 5.29901 2.48477 5.44599 2.33789C5.59288 2.1909 5.79223 2.10841 6 2.10841ZM6 4.65504C6.41203 4.65504 6.74386 4.98686 6.74386 5.39898V9.14773C6.74386 9.55976 6.41203 9.89159 6 9.89159C5.58797 9.89159 5.25614 9.55976 5.25614 9.14773V5.39898C5.25614 4.98686 5.58797 4.65504 6 4.65504Z" fill="#D3D3D3"/>
</svg>
