<svg xmlns="http://www.w3.org/2000/svg" width="12" height="11" viewBox="0 0 12 11"><path fill="#535C68" fill-rule="evenodd" d="M11.466 2.964L8.73.23C8.535.03 8.25-.046 7.98.025c-.267.07-.476.28-.55.547-.07.267.004.553.2.75l.56.558L3.8 5.157l-.55-.55c-.303-.304-.794-.306-1.098-.004-.304.302-.306.793-.004 1.097l1.677 1.676-3.092 3.3c-.076.077-.076.2 0 .277.076.076.2.076.276 0l3.3-3.102 1.674 1.675c.304.304.797.304 1.1 0 .305-.304.305-.797 0-1.1l-.55-.55 3.274-4.39.565.563c.303.28.772.27 1.065-.02.293-.29.305-.76.028-1.064z"/></svg>