<svg width="15" height="16" viewBox="0 0 15 16" fill="none" xmlns="http://www.w3.org/2000/svg">
<path d="M14.2408 13.9616L11.5622 11.2385C12.561 10.1 13.1815 8.59231 13.1815 6.94616C13.1815 3.39231 10.3365 0.5 6.84075 0.5C3.34501 0.5 0.5 3.39231 0.5 6.94616C0.5 10.5 3.34501 13.3923 6.84075 13.3923C8.08171 13.3923 9.23177 13.0231 10.2003 12.4077L12.9848 15.2385C13.1512 15.4077 13.3782 15.5 13.6052 15.5C13.8322 15.5 14.0593 15.4077 14.2257 15.2385C14.5889 14.8847 14.5889 14.3153 14.2408 13.9616L14.2408 13.9616ZM2.27054 6.94619C2.27054 4.39231 4.31355 2.30003 6.84072 2.30003C9.36788 2.30003 11.3958 4.39234 11.3958 6.94619C11.3958 9.50006 9.35275 11.5923 6.84072 11.5923C4.32869 11.5923 2.27054 9.51537 2.27054 6.94619Z" fill="white"/>
</svg>
